<svg version="1.0" xmlns="http://www.w3.org/2000/svg" width="1706.667" height="1706.667" viewBox="0 0 1280 1280" fill="orange"><path d="M795 39.6c-15.8 4.2-31.3 15.6-43.3 31.7-8 10.8-16.9 32.9-20.7 51.7-9.6 47.2 1.2 91.7 28.9 119 12.5 12.3 24.1 16.9 39.4 15.7 15.1-1.1 29.2-8.3 41.9-21.2 21.2-21.5 33.3-53.6 34.5-91.7 1.3-38.1-8-66.8-28.6-88.1-12.6-13.1-24.4-18.8-39-18.6-4.2 0-10.1.7-13.1 1.5zm204.1 61.5c-11.9 1.5-25.5 6.9-38.1 15-3.6 2.3-11.9 9.7-18.5 16.3-13.6 13.6-21.6 24.9-29.9 42.1-11.1 22.8-14.9 38.2-14.9 60.5-.1 17.3 2.1 27.8 8.5 41 5.4 11.2 16.9 23 27.3 28.1 6.8 3.3 7.2 3.4 19.5 3.3 10.5-.1 13.9-.5 21.3-2.7 30.4-9.3 57.1-33.2 74-66.5 6.7-13 10.6-24 14.3-39.8 2.4-10.2 2.8-14 2.8-26.9 0-17.7-1.4-24.4-7.9-38-6.8-14.1-15.4-23.2-27.2-28.7-9.2-4.3-18.1-5.4-31.2-3.7zm-766.3 3.8c-7.5.3-14 1-14.4 1.4-1 1-1.9 38-3.5 145.2-1.3 89.9-.7 218.1 1.5 327.9l1.4 65.8 2.5 2.6 2.6 2.5 26.3.8c111.2 3.4 300.2 3.8 303.4.7 1.1-1.2 1.7-77.9.9-114.2l-.7-33-2.7-2.6c-2.5-2.6-3-2.7-19.1-3.3-9.1-.4-41.8-1-72.7-1.4-31-.3-56.3-.9-56.4-1.2 0-.3-.1-51.9-.3-114.6-.3-104-1.7-213-3.2-254.3-.7-18.9-1.2-20-9-21.3-5.9-1.1-137.2-1.9-156.6-1zm383.5 71.6c-12.2 3.3-22.4 10.6-29.9 21.6-9.3 13.5-14.8 26.4-18.6 44.2-2.9 13.5-3.1 39.8-.5 53 5.1 25.5 14.8 44.7 31 61.4 14.9 15.3 26.9 21.5 41.7 21.5 17.5 0 35.1-9.8 45.8-25.5 7.8-11.2 15.5-31 18.3-46.7 2-10.8 1.7-37.2-.5-48.3-5-25.9-17.1-49.4-34.1-66.2-7.7-7.7-15.9-12.6-25-15-7.3-1.9-21.2-1.8-28.2 0zm447.2 132c-27.4 5-55.2 24.1-74.4 51.1-8 11.3-19.4 34.4-22.3 45.4-2.9 11.2-3.2 33-.5 43 5.9 22.1 20.7 36.8 40.1 40.1 10.8 1.8 27.4.7 37.6-2.6 17.9-5.7 31.7-14.3 46.9-28.9 18.9-18.3 32.1-40.2 39.2-65.1 3-10.3 3.6-28.7 1.5-39.5-4.7-23.4-20.2-40.6-39.7-43.9-8.4-1.4-19.5-1.3-28.4.4zm-279.7 36.6c-43 4.2-76.9 21.5-122.2 62.4-17.1 15.5-35.7 36.2-48.3 54.1-8.8 12.4-23.1 36.7-25.4 43.4-3.2 8.9-3.5 31.4-.5 40 10 29.1 28.6 41.7 66.5 45.1 10.6.9 18.5.8 43.3-.6 34.1-1.9 45.2-1.5 63.8 2.1 32 6.2 47.1 14.9 86.8 49.7 24.6 21.6 32.8 27 48.2 31.9 6.3 1.9 9.6 2.3 20.5 2.3 11.7-.1 13.7-.3 19.8-2.7 17.5-7 27.9-19.6 33.9-41.3 2-7.2 2.2-10.4 2.2-31.5 0-32.7-2.2-46-15.6-94-26.1-93.5-63.8-142.8-120.1-157-17.6-4.4-34.5-5.7-52.9-3.9zM222.1 683c-13.4.5-24.7 1.3-25.2 1.7-2.2 2.3 24.8 154.9 43.2 244.8 20.5 99.7 62.4 289.8 64.9 294.5 2.5 4.6 4.3 4.9 51.1 6.1 44.4 1.2 176.5.5 191.3-.9l6.9-.7 5.3-23c38.7-167 72.4-333.8 94.2-465 9.3-56 8.8-51 5.9-53.9-2.3-2.3-3-2.4-25.3-3.2-30.3-1.1-110.8-1.1-130.6 0-14.8.8-15.7.9-16.2 3-1.4 5.8-11.2 59.2-16.5 90.6-5.3 31.2-17.2 108.1-21.5 139.5-.8 6-4.7 34.2-8.6 62.5-3.8 28.3-7.2 52.6-7.6 53.9-1 4.7-2.5.4-4.4-13-1.1-7.4-5.6-39.3-10-70.9-12.4-88.1-26.2-175-37.4-234.4-4.2-22.5-4.7-24.1-7.5-26.9-2.7-2.8-3.8-3.1-12.3-3.8-14.8-1.2-113-1.8-139.7-.9zm521.1-.1c-25 .4-45.7 1.2-46.1 1.7-1.5 1.5-3.2 95.7-3.8 211.9-.5 100.5.4 211.1 2.6 300.8l.6 26.9 2.6 2.2c3.1 2.7 5.3 2.8 86.9 4.8 52.5 1.3 235.9 1.4 255.5.1l12-.8V1083l-2.7-2.6-2.6-2.7-28.4-.8c-15.6-.4-54.6-.8-86.9-.8-44.1-.1-58.8-.4-59.7-1.3-.9-.9-1.2-7.7-1.2-24.5V1027l58.8-.2 58.7-.3.3-65.3.2-65.3-2.7-2.8c-2.7-2.7-3.3-2.8-16.7-3.4-7.7-.4-29.5-.7-48.6-.7s-38.1-.3-42.3-.6l-7.7-.7v-23.1c0-12.7.4-23.6.8-24.2.5-.8 25.1-1.3 87.7-1.7 47.9-.3 87.9-.8 89.1-1.2 2.1-.6 2.1-1.2 2.7-36.8.3-19.9.3-53.2-.1-73.9-.9-46.5 1.2-42-20-43-22.7-1-238.2-1.7-289-.9z"/></svg>